<?xml version="1.0" encoding="utf-8"?>
<!-- Generator: Adobe Illustrator 18.0.0, SVG Export Plug-In . SVG Version: 6.00 Build 0)  -->
<svg version="1.2" baseProfile="tiny" id="Layer_1" xmlns="http://www.w3.org/2000/svg" xmlns:xlink="http://www.w3.org/1999/xlink"
	 x="0px" y="0px" viewBox="0 0 2600 53" xml:space="preserve">
<rect y="0" fill="#FFFFFF" width="2600" height="53"/>
<g id="uTCr3F_1_">
	<image width="2600" height="53" id="uTCr3F_2_" xlink:href="D44E665D9B246DDC.jpg" >
	</image>
</g>
<polygon fill="#F7F6D1" points="2600,53 940.607,53 982.456,0 2600,0 "/>
<polygon fill="#F1EDA4" points="2600,53 950.164,53 992.012,0 2600,0 "/>
<polygon fill="#BFE68E" points="2600,53 1101.602,53 1057.534,0 2600,0 "/>
<polygon fill="#A8E484" points="2600,53 1113.444,53 1069.376,0 2600,0 "/>
<polygon fill="#B5C497" points="2600,53 1248.586,53 1290.435,0 2600,0 "/>
<polygon fill="#C0A8C9" points="2600,53 1264.332,53 1306.18,0 2600,0 "/>
<polygon fill="#9FC1D3" points="2600,53 1519.177,53 1474.896,0 2600,0 "/>
<polygon fill="#77D2D8" points="2600,53 1541.937,53 1497.657,0 2600,0 "/>
</svg>
